<svg id="Layer_5" data-name="Layer 5" xmlns="http://www.w3.org/2000/svg" viewBox="0 0 542.74 706.56"><polygon points="3.42 99.28 20.1 1.42 397.48 29.59 391.18 71.09 3.42 99.28" style="fill:#90449a;opacity:0.5;isolation:isolate"/><polygon points="4.42 188.85 17.11 249.84 384.49 289.27 398.05 290.72 415.48 292.6 387.16 150.25 4.42 188.85" style="fill:#90449a;opacity:0.6499999761581421;isolation:isolate"/><polygon points="4.42 347.56 522.36 411.82 510.88 478.35 18 542.45 4.42 347.56" style="fill:#90449a;opacity:0.5;isolation:isolate"/><polygon points="482.32 706.57 0 672.5 5.42 635.62 157.08 621.74 470.41 593.07 482.32 706.57" style="fill:#90449a;opacity:0.6499999761581421;isolation:isolate"/><path d="M444.16,207.05l.84-47.23L427,79l24-61L504.06.94,540.65,8.1l-6.13,70.83q4.61,40,9.22,79.94-6.06,27.18-12.13,54.37l5.42,48-95.22-15.48Z" transform="translate(-1 -0.94)" style="fill:#e1e02c;opacity:0.5;isolation:isolate"/></svg>